<?xml version="1.0" encoding="UTF-8"?>
<svg version="1.1" xmlns="http://www.w3.org/2000/svg" width="64" height="64">
<path d="M0 0 C21.12 0 42.24 0 64 0 C64 21.12 64 42.24 64 64 C42.88 64 21.76 64 0 64 C0 42.88 0 21.76 0 0 Z " fill="#073856" transform="translate(0,0)"/>
<path d="M0 0 C0.33 0.99 0.66 1.98 1 3 C1.99 2.34 2.98 1.68 4 1 C8.83517391 0.42367122 13.45086641 0.38680129 18 2.1875 C21.11911892 5.01420152 22.83796365 7.63808161 23.34057617 11.86254883 C23.3170105 13.39431763 23.3170105 13.39431763 23.29296875 14.95703125 C23.2784668 16.62475586 23.2784668 16.62475586 23.26367188 18.32617188 C23.23853516 19.47666016 23.21339844 20.62714844 23.1875 21.8125 C23.16719727 23.56723633 23.16719727 23.56723633 23.14648438 25.35742188 C23.11120278 28.238752 23.0619028 31.11913904 23 34 C20.03 34 17.06 34 14 34 C13.95101562 32.51886719 13.90203125 31.03773437 13.8515625 29.51171875 C13.77653157 27.5702935 13.70098388 25.62888818 13.625 23.6875 C13.5940625 22.71103516 13.563125 21.73457031 13.53125 20.72851562 C13.49257813 19.79072266 13.45390625 18.85292969 13.4140625 17.88671875 C13.3826416 17.02264404 13.3512207 16.15856934 13.31884766 15.26831055 C13.12811963 12.72257555 13.12811963 12.72257555 11 10 C6.39550844 9.41173339 6.39550844 9.41173339 2.30932617 11.21801758 C0.60785953 13.53370004 0.57488536 15.02878311 0.48828125 17.88671875 C0.45283203 18.82451172 0.41738281 19.76230469 0.38085938 20.72851562 C0.34702148 22.19321289 0.34702148 22.19321289 0.3125 23.6875 C0.27833984 24.67556641 0.24417969 25.66363281 0.20898438 26.68164062 C0.12650431 29.12069399 0.06157567 31.56032939 0 34 C-2.97 34 -5.94 34 -9 34 C-9 23.77 -9 13.54 -9 3 C-2 0 -2 0 0 0 Z " fill="#F7FDFD" transform="translate(25,14)"/>
<path d="M0 0 C5.94567757 5.7932243 5.94567757 5.7932243 6.11352539 9.52197266 C6.10828857 10.5588623 6.10305176 11.59575195 6.09765625 12.6640625 C6.09443359 13.78554688 6.09121094 14.90703125 6.08789062 16.0625 C6.07951172 17.238125 6.07113281 18.41375 6.0625 19.625 C6.05798828 20.80835937 6.05347656 21.99171875 6.04882812 23.2109375 C6.03701467 26.14067507 6.02054258 29.07031272 6 32 C3.03 32 0.06 32 -3 32 C-3 25.07 -3 18.14 -3 11 C-2.67 11 -2.34 11 -2 11 C-1.11978631 17.71162938 -0.88618045 24.23405981 -1 31 C0.98 31 2.96 31 5 31 C5 23.41 5 15.82 5 8 C4.01 7.67 3.02 7.34 2 7 C2 6.01 2 5.02 2 4 C1.01 3.67 0.02 3.34 -1 3 C-0.67 2.01 -0.34 1.02 0 0 Z " fill="#EDFCFE" transform="translate(42,16)"/>
<path d="M0 0 C0.99 0.33 1.98 0.66 3 1 C3 2.98 3 4.96 3 7 C1.02 7 -0.96 7 -3 7 C-2.34 6.67 -1.68 6.34 -1 6 C-1.0309375 4.7934375 -1.0309375 4.7934375 -1.0625 3.5625 C-1 1 -1 1 0 0 Z " fill="#234C60" transform="translate(61,57)"/>
<path d="M0 0 C0.33 1.32 0.66 2.64 1 4 C-2.63 3.67 -6.26 3.34 -10 3 C-8 0 -8 0 -6.125 -0.75 C-3.80466218 -1.02298092 -2.21024918 -0.71043724 0 0 Z " fill="#2E546B" transform="translate(41,12)"/>
<path d="M0 0 C4.0042343 3.49087093 5.62671065 5.64951939 6 11 C5.67 10.01 5.34 9.02 5 8 C4.01 7.67 3.02 7.34 2 7 C2 6.01 2 5.02 2 4 C1.01 3.67 0.02 3.34 -1 3 C-0.67 2.01 -0.34 1.02 0 0 Z " fill="#D2E8ED" transform="translate(42,16)"/>
<path d="M0 0 C0.99 1.485 0.99 1.485 2 3 C3.65 2.34 5.3 1.68 7 1 C7 1.99 7 2.98 7 4 C6.01 4 5.02 4 4 4 C4 4.66 4 5.32 4 6 C2.68 5.67 1.36 5.34 0 5 C0 3.35 0 1.7 0 0 Z " fill="#CEDDE3" transform="translate(24,14)"/>
<path d="M0 0 C2.97 0.495 2.97 0.495 6 1 C6 1.33 6 1.66 6 2 C0.375 4 0.375 4 -3 4 C-2.01 2.68 -1.02 1.36 0 0 Z " fill="#D9EAF0" transform="translate(28,21)"/>
<path d="M0 0 C1.32 0.33 2.64 0.66 4 1 C2.25 4.875 2.25 4.875 0 6 C0 4.02 0 2.04 0 0 Z " fill="#2F5574" transform="translate(0,0)"/>
</svg>
